<svg width="179" height="179" viewBox="0 0 179 179" fill="none" xmlns="http://www.w3.org/2000/svg">
<g clip-path="url(#clip0_2623_7528)">
<path fill-rule="evenodd" clip-rule="evenodd" d="M89.502 3.72919C68.2549 3.74021 47.7045 11.2655 31.5254 24.9595C15.3463 38.6535 4.59362 57.6232 1.18994 78.4766C-2.21373 99.33 1.95354 120.707 12.9467 138.786C23.9399 156.865 41.042 170.466 61.1951 177.158C65.6412 177.983 67.3159 175.227 67.3159 172.884C67.3159 170.541 67.227 163.748 67.1973 156.321C42.2992 161.699 37.038 145.814 37.038 145.814C32.9772 135.499 27.1083 132.787 27.1083 132.787C18.9868 127.276 27.716 127.379 27.716 127.379C36.712 128.013 41.4397 136.56 41.4397 136.56C49.413 150.161 62.3807 146.227 67.4789 143.928C68.2792 138.166 70.606 134.246 73.17 132.021C53.2811 129.781 32.3844 122.148 32.3844 88.0488C32.2611 79.2053 35.5615 70.6532 41.6027 64.1617C40.6838 61.9218 37.6159 52.8739 42.477 40.584C42.477 40.584 49.991 38.1968 67.0937 49.7056C81.7632 45.7168 97.2407 45.7168 111.91 49.7056C128.998 38.1968 136.497 40.584 136.497 40.584C141.373 52.8444 138.305 61.8923 137.386 64.1617C143.447 70.6542 146.754 79.2213 146.62 88.0783C146.62 122.251 125.678 129.781 105.76 131.977C108.961 134.747 111.821 140.155 111.821 148.467C111.821 160.373 111.718 169.952 111.718 172.884C111.718 175.257 113.333 178.027 117.868 177.158C138.024 170.465 155.127 156.861 166.12 138.78C177.113 120.698 181.278 99.3174 177.871 78.4621C174.463 57.6067 163.705 38.6368 147.521 24.9452C131.336 11.2536 110.781 3.73322 89.5316 3.72919H89.502Z" fill="white"/>
<path d="M33.8939 131.505C33.7012 131.947 32.9899 132.08 32.4119 131.771C31.8339 131.461 31.4041 130.886 31.6116 130.43C31.8191 129.973 32.5156 129.855 33.0936 130.164C33.6716 130.474 34.1162 131.063 33.8939 131.505Z" fill="white"/>
<path d="M37.5252 135.528C37.2183 135.682 36.8672 135.725 36.5319 135.65C36.1967 135.574 35.8982 135.386 35.6875 135.116C35.1095 134.497 34.9909 133.642 35.4355 133.259C35.8801 132.876 36.6805 133.053 37.2585 133.672C37.8365 134.29 37.9698 135.145 37.5252 135.528Z" fill="white"/>
<path d="M41.0525 140.642C40.5041 141.025 39.5704 140.642 39.0517 139.875C38.9083 139.738 38.7942 139.573 38.7163 139.391C38.6384 139.209 38.5981 139.013 38.5981 138.814C38.5981 138.616 38.6384 138.42 38.7163 138.238C38.7942 138.056 38.9083 137.891 39.0517 137.753C39.6 137.385 40.5338 137.753 41.0525 138.505C41.5712 139.256 41.586 140.259 41.0525 140.642Z" fill="white"/>
<path d="M45.8391 145.593C45.3501 146.138 44.3571 145.991 43.542 145.254C42.7269 144.517 42.5342 143.515 43.0233 142.985C43.5123 142.454 44.5053 142.602 45.35 143.324C46.1948 144.046 46.3579 145.062 45.8391 145.593Z" fill="white"/>
<path d="M52.5529 148.481C52.3306 149.174 51.3228 149.483 50.315 149.189C49.3072 148.894 48.6403 148.069 48.833 147.361C49.0256 146.654 50.0482 146.33 51.0708 146.654C52.0934 146.978 52.7455 147.759 52.5529 148.481Z" fill="white"/>
<path d="M59.8741 148.982C59.8741 149.704 59.0442 150.323 57.9771 150.338C56.91 150.353 56.0356 149.763 56.0356 149.041C56.0356 148.319 56.8655 147.7 57.9326 147.685C58.9997 147.671 59.8741 148.245 59.8741 148.982Z" fill="white"/>
<path d="M66.6915 147.848C66.8249 148.57 66.0839 149.321 65.0168 149.498C63.9498 149.675 63.0161 149.247 62.8827 148.54C62.7493 147.833 63.52 147.067 64.5574 146.875C65.5948 146.683 66.5582 147.125 66.6915 147.848Z" fill="white"/>
</g>
<defs>
<clipPath id="clip0_2623_7528">
<rect width="179" height="179" fill="white"/>
</clipPath>
</defs>
</svg>
