<svg width="460" height="307" viewBox="0 0 460 307" fill="none" xmlns="http://www.w3.org/2000/svg">
<g clip-path="url(#clip0_2633_7568)">
<path d="M78.7466 293.238L85.6766 295.117L96.2156 269.246L85.9865 266.472L78.7466 293.238Z" fill="#FFB6B6"/>
<path d="M76.5439 300.411L97.8566 306.19L97.9296 305.92C98.5254 303.718 98.2229 301.368 97.0887 299.389C95.9544 297.409 94.0813 295.962 91.8813 295.365L91.8808 295.365L88.7879 291.352L80.7243 292.339L78.8638 291.835L76.5439 300.411Z" fill="black"/>
<path d="M126.6 299.259L133.78 299.258L137.196 271.528L126.598 271.529L126.6 299.259Z" fill="#FFB6B6"/>
<path d="M126.347 306.758L148.428 306.757V306.478C148.427 304.196 147.522 302.007 145.91 300.393C144.298 298.78 142.113 297.873 139.833 297.873H139.833L135.799 294.809L128.274 297.873L126.347 297.874L126.347 306.758Z" fill="black"/>
<path d="M129.666 139.359L139.302 276.009L123.784 277.385L102.135 176.112L104.534 234.708L95.9419 280.794L82.8071 274.435L83.0253 226.448L65.7808 148.9L70.3706 139.359H129.666Z" fill="black"/>
<path d="M67.9813 156.361L67.885 156.226C62.7423 149.017 70.4769 131.694 71.6435 129.183C70.2582 128.733 69.0716 127.816 68.2858 126.589C67.4999 125.361 67.1634 123.898 67.3336 122.45L67.8364 118.17L68.3606 113.972L64.6053 110.212L64.5948 110.118L62.4336 91.1849L59.2914 78.6096C58.1075 73.8557 58.2084 68.8719 59.5837 64.1699C60.9591 59.468 63.5595 55.2172 67.1178 51.8539L74.381 50.6991L83.2081 42.1836H97.4428L102.324 46.8525C111.435 48.4525 113 47.9301 120.826 57.3334L117.27 86.5686L116.383 90.5904L116.386 96.0454L118.641 98.5551C119.454 99.4591 120.044 100.541 120.365 101.714C120.686 102.886 120.73 104.118 120.491 105.311L120.195 106.795C122.521 107.794 124.741 125.532 125.271 128.009L126.063 131.711C126.741 132.606 131.214 138.578 131.214 140.211C131.214 140.456 131.034 140.693 130.646 140.956C127.597 143.023 115.443 157.684 107.985 154.697C100.042 151.516 68.4635 156.287 68.1454 156.336L67.9813 156.361Z" fill="#4A6459"/>
<path d="M66.0686 122.365C66.0686 122.365 69.7241 101.681 66.0414 93.9019L51.4321 94.9467L53.6555 124.456L66.4267 157.22C66.2317 158.229 66.307 159.272 66.6449 160.243C66.9828 161.214 67.5713 162.078 68.3505 162.748C69.1298 163.417 70.0721 163.868 71.0819 164.055C72.0916 164.243 73.1328 164.159 74.0997 163.813C75.0667 163.467 75.9249 162.87 76.5874 162.085C77.2498 161.299 77.6929 160.352 77.8716 159.34C78.0503 158.327 77.9582 157.285 77.6048 156.32C77.2513 155.355 76.6491 154.5 75.8591 153.843L66.0686 122.365Z" fill="#FFB6B6"/>
<path d="M51.4321 82.9314L52.3362 73.0729C52.6765 69.3626 53.7461 65.7562 55.4835 62.4612C57.2209 59.1662 59.5918 56.2477 62.4598 53.8735C64.2418 52.4092 66.3973 51.4732 68.6828 51.1711C70.9682 50.8691 73.2925 51.213 75.3929 52.1642C78.2316 53.4726 80.468 55.8115 81.6502 58.7079C82.8323 61.6043 82.8718 64.8421 81.7609 67.7665C78.3843 76.6331 79.6036 86.0096 73.0196 87.1528L73.7349 90.5601L67.2612 111.713L48.8232 109.574L51.4321 82.9314Z" fill="#4A6459"/>
<path d="M123.842 150.419C123.196 151.218 122.772 152.174 122.615 153.19C122.457 154.206 122.571 155.246 122.944 156.203C123.317 157.161 123.937 158.003 124.74 158.643C125.544 159.284 126.502 159.7 127.518 159.85C128.534 159.999 129.571 159.877 130.525 159.496C131.478 159.114 132.314 158.487 132.947 157.677C133.58 156.868 133.988 155.905 134.13 154.887C134.271 153.868 134.141 152.831 133.752 151.879L139.863 117.244L136.269 87.8713L121.738 89.713C119.649 98.0638 127.282 117.63 127.282 117.63L123.842 150.419Z" fill="#FFB6B6"/>
<path d="M141.689 101.703L124.027 107.418L117.227 96.7963L117.262 93.3147C110.582 93.4854 106.255 75.2006 101.208 67.1684C99.5464 64.5186 98.9515 61.3359 99.5439 58.2637C100.136 55.1916 101.872 52.4592 104.399 50.6192C106.273 49.2744 108.485 48.4811 110.785 48.3289C113.085 48.1768 115.382 48.6718 117.416 49.758C120.693 51.5235 123.589 53.9203 125.938 56.8105C128.286 59.7008 130.041 63.0274 131.101 66.599L133.917 76.089L141.689 101.703Z" fill="#4A6459"/>
<path d="M89.3648 38.0698C98.0957 38.0698 105.173 30.9832 105.173 22.2415C105.173 13.4999 98.0957 6.41333 89.3648 6.41333C80.6339 6.41333 73.5562 13.4999 73.5562 22.2415C73.5562 30.9832 80.6339 38.0698 89.3648 38.0698Z" fill="#FFB6B6"/>
<path d="M77.8919 33.398C77.7539 33.2769 77.6236 33.1475 77.4888 33.0229C77.4839 33.0357 77.4832 33.0488 77.478 33.0615L77.8919 33.398Z" fill="black"/>
<path d="M102.32 5.52695C101.534 4.26097 100.446 3.21073 99.1542 2.47101C98.271 2.0421 97.3429 1.71284 96.3869 1.48932L93.8851 0.805857C92.6032 0.40871 91.2844 0.142838 89.9489 0.0123233C88.0944 -0.0792767 86.2504 0.34115 84.6183 1.22767C82.9862 2.1142 81.6288 3.43273 80.6944 5.03925C79.9385 6.3816 79.3322 8.05435 77.8734 8.54546C76.6971 8.94147 75.4137 8.38287 74.1774 8.49124C73.453 8.59635 72.7656 8.87875 72.1762 9.31341C71.5869 9.74807 71.1137 10.3216 70.7986 10.9831C70.1825 12.3144 69.8793 13.7693 69.9122 15.2362C69.8636 18.5665 70.5128 21.87 71.8178 24.9336C73.1229 27.9973 75.0548 30.753 77.489 33.0231C77.897 31.9462 77.225 30.7836 76.6937 29.7535C76.1562 28.7112 75.824 27.2581 76.7243 26.5074C77.7261 25.6721 79.3311 26.4821 80.5158 25.9373C80.8949 25.7194 81.2141 25.4108 81.445 25.0392C81.6759 24.6676 81.8113 24.2445 81.8391 23.8077C81.9537 22.9422 81.834 22.0625 81.8883 21.1911C81.9417 20.3323 82.1636 19.4925 82.5412 18.7196C82.9189 17.9467 83.4448 17.2558 84.0891 16.6864C84.7334 16.117 85.4834 15.6802 86.2963 15.401C87.1092 15.1219 87.969 15.0057 88.8267 15.0593C88.8465 15.0605 88.8662 15.0618 88.8859 15.0632C91.5826 15.2561 94.1997 17.1011 96.7948 16.3421C98.013 15.9858 99.052 15.0786 100.312 14.9261C101.707 14.757 103.02 15.5455 104.204 16.3025C104.635 14.4722 104.69 12.5734 104.366 10.7212C104.042 8.869 103.346 7.1019 102.32 5.52695Z" fill="black"/>
<path d="M184.929 297.866L180.906 291.393L180.102 295.092C179.961 295.74 179.821 296.398 179.69 297.051C178.548 296.074 177.332 295.17 176.142 294.303C172.49 291.649 168.839 288.992 165.19 286.331L166.333 292.966C167.037 297.051 167.773 301.22 169.516 304.955C169.709 305.378 169.918 305.796 170.142 306.203H187.12C187.257 305.825 187.351 305.432 187.402 305.033C187.406 305.007 187.408 304.981 187.407 304.955C187.673 302.421 186.275 300.034 184.929 297.866Z" fill="#F0F0F0"/>
<path d="M204.683 306.839L40.1421 307C39.9778 306.999 39.8206 306.933 39.7048 306.817C39.589 306.7 39.5239 306.542 39.5239 306.378C39.5239 306.214 39.589 306.056 39.7048 305.939C39.8206 305.823 39.9778 305.757 40.1421 305.756L204.683 305.595C204.847 305.596 205.005 305.662 205.12 305.779C205.236 305.895 205.301 306.053 205.301 306.217C205.301 306.382 205.236 306.54 205.12 306.656C205.005 306.773 204.847 306.839 204.683 306.839Z" fill="#CACACA"/>
<path d="M374.761 101.031C374.725 119.318 367.858 136.931 355.511 150.405C343.163 163.88 326.227 172.243 308.033 173.85C289.839 175.456 271.703 170.19 257.19 159.087C242.678 147.984 232.838 131.847 229.606 113.849C226.374 95.8501 229.983 77.292 239.724 61.8228C249.465 46.3536 264.634 35.0924 282.247 30.253C299.86 25.4136 318.645 27.3461 334.907 35.6706C351.17 43.9952 363.734 58.1095 370.13 75.2388C370.289 75.669 370.445 76.099 370.596 76.5333V76.5375C371.271 78.4465 371.866 80.391 372.38 82.3711C373.966 88.4638 374.766 94.7348 374.761 101.031Z" fill="#4A6459"/>
<path d="M293.056 51.2803C289.746 49.4883 286.071 48.4767 282.312 48.3227C278.552 48.1687 274.807 48.8763 271.362 50.3917C268.329 51.7133 265.135 54.0842 264.124 58.3656C268.216 55.9475 273.513 59.7681 274.566 65.8971L274.321 65.965C273.764 70.2102 275.006 74.8322 277.41 77.4645C277.588 76.2767 278.029 75.1438 278.7 74.1478C279.371 73.1519 280.254 72.3181 281.287 71.7069C283.053 70.5444 285.007 69.7 286.355 67.7019C287.953 65.3331 288.359 61.8711 288.994 58.7129C289.629 55.5548 290.833 52.1603 293.056 51.2803Z" fill="#7EE787"/>
<path d="M270.148 87.4057C269.015 89.1099 267.501 90.1791 266.143 91.5105C264.574 92.9387 263.546 94.8643 263.229 96.9631C263.058 98.4461 263.324 99.9536 263.287 101.453C263.25 102.952 262.751 104.64 261.732 105.013C260.124 105.595 258.896 102.604 257.244 102.395C255.93 102.231 254.748 104.3 255.128 106.094C255.509 107.889 257.297 108.684 258.324 107.512C259.252 109.073 258.598 111.904 257.203 112.383C257.055 113.366 256.908 114.345 256.765 115.328C253.238 112.858 249.674 110.347 246.675 106.729C243.339 102.74 241.271 97.8445 240.734 92.6699C240.345 88.5118 240.922 83.7556 239.016 80.5562C237.489 77.9958 234.871 77.4304 232.514 77.5902C232.084 77.6188 231.651 77.668 231.221 77.7213C232.611 73.5417 234.376 69.4969 236.495 65.6362C236.975 65.4301 237.42 65.1525 237.817 64.8128C240.01 62.9488 240.984 59.1758 242.763 56.5663C242.878 56.3983 242.997 56.2344 243.119 56.0747C244.94 53.6945 247.379 52.4696 249.735 51.3308C254.952 48.795 260.32 46.2264 265.827 46.5787L264.26 46.7303C262.431 51.8593 260.601 56.9882 258.769 62.1172C258.491 62.9037 258.21 63.6916 257.927 64.481C256.887 67.3977 255.815 70.503 255.975 73.768C256.069 75.7016 256.74 77.7663 258.017 78.43C259.207 79.0445 260.508 78.2907 261.658 77.5451C262.145 77.2337 262.628 76.9224 263.115 76.6069C264.862 75.4803 266.797 74.3251 268.642 75.0789C270.332 75.7671 271.58 78.0654 271.817 80.5438C272.035 82.953 271.448 85.3665 270.148 87.4057Z" fill="#7EE787"/>
<path d="M280.539 122.423C275.437 119.277 270.334 116.131 265.231 112.986L265.318 112.762C262.146 113.972 260.828 119.619 261.353 124.236C261.877 128.854 263.655 132.981 264.553 137.481C265.764 143.638 265.307 150.007 263.229 155.927C269.939 148.39 275.877 140.197 280.954 131.473C281.663 130.374 282.204 129.174 282.557 127.914C282.932 126.571 282.798 125.137 282.182 123.886C281.765 123.269 281.2 122.766 280.539 122.423Z" fill="#7EE787"/>
<path d="M260.401 65.1946C259.802 66.4827 259.71 67.9496 260.142 69.3028C260.646 70.3931 261.559 71.24 262.684 71.6592L265.503 73.0584C266.441 73.524 267.452 73.9941 268.408 73.6111C269.561 73.1492 270.361 71.3389 270.154 69.6583C269.934 67.8699 268.808 66.6398 267.767 65.5923C266.31 64.1263 264.852 62.6603 263.395 61.1943L262.574 62.2014C261.686 63.0689 260.951 64.081 260.401 65.1946Z" fill="#7EE787"/>
<path d="M359.647 84.3129C360.915 84.6119 362.184 84.911 363.452 85.21C363.231 89.4992 361.108 93.4688 358.26 94.9067C357.073 95.5049 355.752 95.726 354.77 96.8445C353.882 97.8604 353.432 99.4417 353.019 100.953C352.294 103.592 351.57 106.23 350.846 108.868C350.069 111.711 349.07 114.87 347.049 115.894C345.314 116.774 343.33 115.697 341.996 113.89C340.662 112.084 339.848 109.655 339.058 107.287C339.107 109.868 337.909 112.399 336.211 113.296C334.508 114.194 332.438 113.382 331.301 111.379C330.482 109.941 330.143 108.045 329.341 106.586C328.539 105.128 326.857 104.292 325.982 105.66C325.405 106.57 325.478 107.963 325.192 109.118C325.048 109.885 324.668 110.588 324.107 111.129C323.545 111.67 322.829 112.022 322.058 112.137C321.349 112.121 320.651 111.96 320.006 111.665C319.361 111.37 318.782 110.947 318.306 110.421C315.8 107.854 314.169 104.561 313.646 101.011C313.291 99.3085 313.336 97.5471 313.777 95.8653C314.28 94.2718 315.495 93.0428 316.702 93.3459C317.496 91.6662 315.929 89.4377 314.517 89.6343C313.101 89.831 311.993 91.3508 310.831 92.5184C309.673 93.6859 308.053 94.5339 306.886 93.3745C306.912 93.7986 306.769 94.2156 306.488 94.5339C306.207 94.8523 305.811 95.0457 305.388 95.0719C305.346 95.0745 305.304 95.0754 305.262 95.0746C304.487 94.8518 303.766 94.4695 303.147 93.9522C300.475 92.2848 297.083 93.391 295.185 96.5453C296.371 91.4901 298.11 85.6893 301.756 84.5012C303.245 84.0137 304.869 84.4152 306.277 83.5713C308.769 82.0761 309.272 76.4268 307.12 74.0959C307.394 76.2998 307.341 78.8725 306.179 80.3801C305.017 81.8877 302.578 80.9044 302.725 78.6759C302.692 78.9893 302.561 79.2843 302.35 79.5184C302.14 79.7526 301.86 79.9139 301.552 79.9794C301.244 80.0449 300.924 80.0111 300.636 79.8829C300.348 79.7547 300.109 79.5387 299.951 79.2658C299.178 78.086 299.243 76.1565 299.792 74.7472C300.357 73.4709 301.167 72.3183 302.177 71.3553C304.121 69.2701 306.093 67.1603 308.343 65.8494C310.598 64.5385 313.2 64.0961 315.458 65.3988C316.649 66.087 317.696 67.2341 318.912 67.8404C319.197 68.0178 319.515 68.1371 319.846 68.1916C320.178 68.2461 320.517 68.2347 320.844 68.1579C321.172 68.0812 321.48 67.9407 321.753 67.7445C322.026 67.5482 322.258 67.3 322.435 67.0141C322.449 66.992 322.462 66.9698 322.475 66.9473C323.38 65.3578 322.954 62.9981 323.29 61.0113C323.891 57.5005 327.397 55.8577 329.341 58.1764C327.888 57.8037 326.387 59.5242 326.207 61.6094C326.023 63.6946 327.074 65.8003 328.482 66.4312C330.847 67.4798 333.162 64.8416 334.95 62.4001C336.816 59.8437 338.685 57.2888 340.556 54.7353C340.855 54.3005 341.19 53.8921 341.558 53.5145C342.144 52.9426 342.926 52.6151 343.744 52.5983C344.562 52.5816 345.356 52.8769 345.965 53.4244C347.855 54.9688 348.743 58.1355 350.294 60.3149C352.544 63.4816 355.911 64.2517 359.046 64.8662C361.382 65.321 363.719 65.7784 366.059 66.2386C367.618 69.1429 368.978 72.1499 370.13 75.2389C365.84 77.1972 362.202 80.3464 359.647 84.3129Z" fill="#7EE787"/>
<path d="M372.38 82.371C371.901 83.7856 371.638 85.265 371.603 86.7584C369.598 84.3086 369.278 79.7164 370.596 76.5374C371.271 78.4464 371.866 80.3909 372.38 82.371Z" fill="#7EE787"/>
<path d="M367.2 133.603C365.447 137.167 363.408 140.583 361.104 143.816C359.631 143.185 358.047 144.312 356.668 145.369C355.228 146.475 353.497 147.552 352.02 146.545C350.511 145.512 350.024 142.624 350.502 140.334C351.053 138.222 352.015 136.239 353.334 134.501C354.561 132.665 355.874 130.76 357.581 130.047C359.291 129.335 361.488 130.342 361.987 132.776L363.198 132.735C362.519 131.801 362.875 129.867 363.788 129.527C364.839 129.13 365.752 130.576 366.373 131.854C366.652 132.432 366.934 133.014 367.2 133.603Z" fill="#7EE787"/>
<path d="M320.816 116.3C318.213 116.464 316.151 113.255 314.781 110.098C313.41 106.942 312.16 103.332 309.811 101.725C308.469 100.807 306.939 100.681 305.483 100.236C304.658 100.028 303.893 99.6248 303.254 99.0614C302.615 98.4979 302.119 97.7901 301.808 96.9965L300.156 96.3286C297.847 97.4847 295.731 98.9948 293.887 100.805C291.779 103.046 290.467 105.92 290.151 108.982C289.836 112.291 291 115.981 293.177 117.225C294.897 118.207 296.899 117.588 298.641 118.487C300.818 119.611 302.11 122.874 302.599 126.097C303.088 129.32 302.964 132.669 303.314 135.928C303.664 139.187 304.628 142.578 306.624 144.248C309.122 146.339 312.787 144.602 313.908 140.797C314.458 138.931 314.439 136.825 314.85 134.888C315.574 131.476 317.527 128.945 319.077 126.147C320.627 123.348 321.846 119.547 320.816 116.3Z" fill="#7EE787"/>
<path d="M295.093 82.7762C295.336 83 295.562 83.2408 295.771 83.4968C295.987 83.8695 296.097 84.2941 296.089 84.7248C296.082 85.1556 295.958 85.5762 295.729 85.9413C296.043 85.9234 296.349 85.8406 296.629 85.6982C296.909 85.5557 297.156 85.3566 297.356 85.1135C297.831 84.5718 298.249 83.9823 298.603 83.3545C298.769 83.1395 298.888 82.8915 298.952 82.6269C299.015 82.3624 299.022 82.0873 298.971 81.8201C298.848 81.4687 298.557 81.3188 298.353 81.0545C298.07 80.5378 297.878 79.9768 297.783 79.3954C297.67 78.8505 297.407 78.348 297.024 77.9443C296.642 77.5406 296.154 77.2517 295.617 77.1101L295.747 77.1351C295.525 77.267 295.35 77.4652 295.246 77.7019C295.142 77.9385 295.115 78.2018 295.168 78.4549C295.247 78.9661 295.575 79.3905 295.542 79.9119C295.495 80.6616 294.747 81.0134 294.7 81.7632C294.693 82.1394 294.834 82.5033 295.093 82.7762Z" fill="#7EE787"/>
<path d="M290.632 70.0358L290.644 70.0335C290.724 69.9604 290.798 69.8812 290.866 69.7966L290.632 70.0358Z" fill="#7EE787"/>
<path d="M291.413 73.5548C291.726 73.2801 291.957 72.9246 292.082 72.5273C292.206 72.1299 292.22 71.7059 292.12 71.3016C291.931 70.4491 291.261 69.8759 290.644 70.0334C290.465 70.2152 290.243 70.3484 289.998 70.4205C289.753 70.4926 289.494 70.5013 289.246 70.4456C288.864 70.3472 288.445 70.0939 288.114 70.3818C287.924 70.5968 287.792 70.856 287.728 71.1355C287.606 71.5121 287.483 71.8887 287.361 72.2652C287.302 72.4 287.287 72.5495 287.317 72.6933C287.341 72.7509 287.379 72.8015 287.427 72.8402C287.476 72.879 287.534 72.9045 287.595 72.9144C288.33 73.1314 289.065 73.3484 289.8 73.5654C290.054 73.6821 290.329 73.7417 290.608 73.7399C290.887 73.7381 291.162 73.6749 291.413 73.5548Z" fill="#7EE787"/>
<path d="M346.911 122.14C346.572 121.583 346.232 121.026 345.892 120.469C345.558 119.824 345.102 119.25 344.549 118.78C344.429 118.68 344.29 118.604 344.141 118.557C343.992 118.51 343.835 118.493 343.68 118.507C343.524 118.521 343.372 118.565 343.234 118.637C343.095 118.71 342.972 118.809 342.872 118.929L342.854 118.95L342.895 119.269C343.805 120.245 344.425 121.457 344.686 122.767C344.763 123.336 344.737 123.925 344.804 124.497C344.812 124.762 344.871 125.023 344.979 125.265C345.087 125.507 345.242 125.726 345.434 125.908C345.969 126.266 346.597 125.738 346.978 125.094C347.319 124.565 347.471 123.937 347.412 123.311C347.327 122.89 347.157 122.492 346.911 122.14Z" fill="#7EE787"/>
<path d="M352.242 122.865C352.307 122.344 352.265 121.815 352.118 121.31C352.094 120.627 352.274 119.953 352.637 119.374C352.997 118.829 353.27 118.23 353.445 117.6C353.52 117.313 353.506 117.01 353.407 116.73C353.294 116.477 353.022 116.362 352.865 116.562L353.2 116.778C352.748 116.697 352.284 116.72 351.843 116.844C351.591 116.94 351.366 117.096 351.187 117.298C351.008 117.501 350.88 117.743 350.814 118.005C350.759 118.413 350.669 118.816 350.544 119.209C350.345 119.62 349.959 119.757 349.716 120.117C349.551 120.436 349.467 120.792 349.473 121.152C349.479 121.512 349.574 121.864 349.75 122.178C350.055 122.691 350.539 123.073 351.109 123.248C351.518 123.395 352.056 123.403 352.242 122.865Z" fill="#7EE787"/>
<path d="M361.736 125.733C361.884 126.118 362.081 126.481 362.324 126.814C362.779 127.272 363.396 126.991 363.948 126.879C364.448 126.8 364.961 126.858 365.431 127.047C365.901 127.236 366.311 127.548 366.618 127.952C366.404 126.884 365.938 125.883 365.257 125.034C364.577 124.184 363.703 123.51 362.709 123.069C361.417 122.621 360.055 122.408 358.689 122.439L358.455 122.499C359.05 124.233 360.918 124.194 361.736 125.733Z" fill="#7EE787"/>
<path d="M321.528 129.28L321.532 129.288L321.6 129.156L321.528 129.28Z" fill="#7EE787"/>
<path d="M320.088 132.071C319.774 132.642 319.503 133.236 319.28 133.848C318.983 134.839 318.787 135.858 318.694 136.889C318.621 137.475 318.598 138.223 318.965 138.509C319.07 138.579 319.198 138.608 319.323 138.591C319.448 138.574 319.563 138.512 319.646 138.416C319.849 138.2 320.016 137.952 320.139 137.682C320.86 136.439 321.419 135.11 321.804 133.725C322.206 132.256 322.11 130.696 321.531 129.287C321.05 130.215 320.569 131.143 320.088 132.071Z" fill="#7EE787"/>
<path d="M306.194 57.7107C306.423 57.9346 306.712 58.0866 307.026 58.1479C307.34 58.2093 307.665 58.1773 307.961 58.056C308.575 57.7876 309.137 57.4157 309.624 56.9564C310.027 56.6576 310.37 56.2838 310.632 55.8555C310.777 55.5996 310.869 55.3176 310.904 55.0257C310.94 54.7339 310.917 54.4379 310.838 54.1548C310.725 53.8835 310.546 53.6455 310.315 53.4632C310.085 53.281 309.813 53.1605 309.523 53.1131C308.707 52.8708 307.891 52.6286 307.075 52.3863L307.665 51.8537C307.058 51.5273 306.386 52.133 306.007 52.8828C305.763 53.3724 305.593 53.8954 305.503 54.4348C305.374 54.9983 305.369 55.5833 305.488 56.149C305.608 56.7147 305.849 57.2476 306.194 57.7107Z" fill="#7EE787"/>
<path d="M320.6 52.8684C320.83 53.1222 321.148 53.2789 321.49 53.3067C321.831 53.3345 322.17 53.2313 322.438 53.018C322.668 52.8446 322.86 52.6245 323 52.372C323.14 52.1195 323.225 51.8403 323.25 51.5526C323.308 50.9099 322.991 50.1957 322.537 50.1402L322.641 49.5385C321.768 49.3806 320.694 49.349 320.226 50.4106C320.068 50.8173 320.019 51.2583 320.085 51.6896C320.151 52.1209 320.329 52.5274 320.6 52.8684Z" fill="#7EE787"/>
<g opacity="0.35">
<path d="M458.739 104.664C463.558 102.56 453.785 101.336 442.698 100.933C431.611 100.531 418.199 100.553 411.114 99.4077C404.262 98.3001 404.767 96.3308 404.19 94.5465C403.614 92.7622 400.979 90.9327 390.287 90.536C376.963 90.0418 354.99 91.9443 344.932 90.8021C335.546 89.7362 341.125 86.3928 327.438 86.2648C319.623 86.1918 309.554 87.294 300.858 87.5601C294.693 87.8278 288.517 87.5054 282.414 86.5973C278.176 85.9019 275.223 85.0204 270.453 84.4063C257.928 82.7938 233.424 83.3358 211.553 85.4024C189.682 87.469 170.935 90.8557 160.362 94.2101C149.79 97.5645 146.868 100.867 149.331 103.668C150.904 105.456 154.928 107.128 164.69 107.847C182.95 109.191 215.459 106.878 234.327 108.101C244.843 108.782 249.508 110.472 258.735 111.397C268.647 112.39 283.158 112.443 297.415 112.419C327.1 112.37 357.544 112.065 388.588 111.505C401.555 111.271 415.141 110.967 428.939 109.852C442.736 108.737 456.809 106.586 459.72 104.57" fill="white"/>
</g>
<path d="M374.963 197.576C368.226 197.576 360.842 197.321 352.811 196.811C311.272 194.17 257.466 184.988 201.305 170.956C145.144 156.925 93.3368 139.719 55.4282 122.511C36.9617 114.128 22.7888 106.193 13.3037 98.9258C3.26131 91.2323 -1.13136 84.5262 0.247167 78.9945C2.93316 68.2178 26.7166 65.8601 46.1955 65.78L46.2021 67.3472C19.4524 67.4572 3.67149 71.7285 1.7661 79.3741C-0.661054 89.1118 19.1337 104.314 56.0745 121.084C93.8998 138.254 145.611 155.426 201.684 169.436C257.756 183.445 311.463 192.612 352.911 195.247C393.388 197.821 417.997 193.713 420.424 183.975C422.439 175.889 409.155 163.979 383.019 150.437L383.738 149.045C402.729 158.885 424.772 172.998 421.943 184.354C420.564 189.886 413.539 193.739 401.064 195.807C393.953 196.985 385.218 197.576 374.963 197.576Z" fill="#7EE787"/>
<path d="M117.916 199.617C99.3417 199.617 82.074 198.979 66.6153 197.691C46.4093 196.008 30.3975 193.301 19.0253 189.648C6.98483 185.78 0.59708 180.941 0.0393963 175.267C-1.04743 164.214 20.5623 153.992 38.882 147.364L39.414 148.838C14.2563 157.94 0.826136 167.272 1.59704 175.114C2.57891 185.102 26.3244 192.762 66.745 196.129C108.134 199.577 162.601 198.356 220.115 192.687C277.629 187.019 331.289 177.586 371.212 166.124C410.201 154.931 432 142.784 431.018 132.796C430.203 124.503 413.694 117.754 384.533 113.791L384.744 112.238C405.932 115.117 431.431 120.994 432.575 132.642C433.133 138.316 427.81 144.308 416.754 150.453C406.311 156.256 391.134 162.036 371.644 167.631C331.633 179.118 277.873 188.57 220.268 194.247C184.132 197.808 149.181 199.617 117.916 199.617Z" fill="#7EE787"/>
<path d="M228.452 232.719C233.489 232.719 237.574 228.63 237.574 223.586C237.574 218.542 233.489 214.453 228.452 214.453C223.414 214.453 219.33 218.542 219.33 223.586C219.33 228.63 223.414 232.719 228.452 232.719Z" fill="#7EE787"/>
<path d="M48.8231 178.797C53.8611 178.797 57.9451 174.707 57.9451 169.663C57.9451 164.619 53.8611 160.53 48.8231 160.53C43.7852 160.53 39.7012 164.619 39.7012 169.663C39.7012 174.707 43.7852 178.797 48.8231 178.797Z" fill="#E6E6E6"/>
<path d="M216.308 38.8016C219.392 38.8016 221.892 36.2984 221.892 33.2106C221.892 30.1228 219.392 27.6196 216.308 27.6196C213.224 27.6196 210.724 30.1228 210.724 33.2106C210.724 36.2984 213.224 38.8016 216.308 38.8016Z" fill="#FF6584"/>
<path d="M182.522 81.007C187.56 81.007 191.644 76.9179 191.644 71.8737C191.644 66.8296 187.56 62.7405 182.522 62.7405C177.484 62.7405 173.4 66.8296 173.4 71.8737C173.4 76.9179 177.484 81.007 182.522 81.007Z" fill="#E6E6E6"/>
</g>
<defs>
<clipPath id="clip0_2633_7568">
<rect width="460" height="307" fill="white"/>
</clipPath>
</defs>
</svg>
