<?xml version="1.0" standalone="no"?>
<!DOCTYPE svg PUBLIC "-//W3C//DTD SVG 20010904//EN"
 "http://www.w3.org/TR/2001/REC-SVG-20010904/DTD/svg10.dtd">
<svg version="1.0" xmlns="http://www.w3.org/2000/svg"
 width="1200.000000pt" height="1200.000000pt" viewBox="0 0 1200.000000 1200.000000"
 preserveAspectRatio="xMidYMid meet">
<metadata>
Created by potrace 1.14, written by Peter Selinger 2001-2017
</metadata>
<g transform="translate(0.000000,1200.000000) scale(0.100000,-0.100000)"
fill="#000000" stroke="none">
<path d="M1167 8094 c-1 -1 -28 -4 -60 -8 -31 -3 -67 -8 -80 -11 -12 -3 -33
-7 -47 -9 -34 -5 -110 -26 -135 -37 -11 -4 -48 -19 -83 -33 -176 -70 -356
-212 -481 -381 -28 -38 -55 -74 -59 -80 -45 -59 -140 -291 -158 -385 -32 -167
-36 -352 -10 -475 43 -206 105 -344 224 -503 30 -40 245 -264 479 -497 305
-305 429 -437 443 -467 49 -108 -2 -239 -114 -289 -35 -15 -71 -18 -265 -19
-123 0 -245 -5 -270 -10 -218 -47 -378 -238 -385 -461 -6 -174 73 -328 220
-430 100 -68 172 -81 469 -81 221 0 301 6 395 27 14 3 38 8 54 11 91 16 353
138 396 184 3 3 22 18 43 33 66 50 167 154 228 237 112 153 202 382 225 570 8
70 9 249 1 290 -3 14 -10 53 -17 88 -29 162 -121 361 -227 495 -31 40 -247
262 -479 495 -462 463 -463 463 -451 562 18 154 168 242 305 180 32 -14 397
-374 1466 -1442 782 -783 1438 -1436 1457 -1452 19 -16 70 -52 114 -81 421
-276 964 -260 1375 38 64 47 190 172 240 238 l35 47 115 -114 c101 -99 128
-124 175 -162 6 -4 39 -27 74 -50 398 -264 958 -259 1357 14 70 48 93 67 168
139 166 161 294 405 339 650 15 76 17 341 4 405 -3 14 -8 41 -11 60 -26 133
-115 326 -212 456 -29 40 -241 261 -471 491 -230 230 -429 434 -442 452 -31
43 -39 140 -17 192 20 48 59 94 99 116 28 16 66 18 330 21 l298 3 -8 -53 c-10
-63 -9 -299 0 -348 4 -19 9 -48 12 -65 13 -68 49 -175 86 -254 92 -197 80
-183 1098 -1204 520 -522 982 -977 1026 -1011 171 -133 327 -203 540 -241 92
-16 253 -21 330 -10 106 16 162 28 233 51 444 143 768 541 817 1002 25 234
-35 397 -189 517 -155 120 -365 133 -541 34 -144 -80 -237 -238 -246 -414 -8
-150 -123 -239 -265 -204 -47 11 -83 46 -962 923 -502 501 -925 931 -939 954
-47 79 -29 197 40 263 54 52 87 59 302 59 241 0 311 14 415 85 314 213 286
673 -52 847 -101 52 -88 51 -1213 52 -1116 0 -1172 -2 -1300 -36 -22 -5 -47
-12 -55 -13 -30 -7 -147 -53 -190 -75 -133 -67 -312 -213 -407 -331 -66 -83
-154 -248 -192 -358 -124 -362 -73 -742 141 -1062 51 -77 140 -172 501 -534
241 -242 446 -453 455 -470 36 -70 18 -179 -42 -243 -50 -54 -81 -66 -171 -66
-65 0 -87 4 -115 22 -19 12 -718 705 -1555 1541 -1145 1145 -1535 1529 -1579
1555 -108 65 -243 85 -368 56 -175 -41 -331 -204 -365 -380 -24 -125 6 -269
78 -375 15 -22 488 -501 1052 -1065 934 -935 1026 -1029 1037 -1070 22 -79 10
-140 -41 -212 -50 -69 -181 -95 -264 -52 -19 11 -684 668 -1478 1460 -1145
1145 -1458 1452 -1520 1493 -210 140 -420 208 -660 214 -54 1 -99 2 -100 1z"/>
</g>
</svg>
